<svg width="11" height="12" viewBox="0 0 11 12" fill="none" xmlns="http://www.w3.org/2000/svg">
<path d="M0 5.85828C0 6.12901 0.092164 6.35712 0.276494 6.54262L5.1413 11.4383C5.3356 11.6238 5.56227 11.7166 5.82133 11.7166C6.07541 11.7166 6.29959 11.6238 6.49389 11.4383L7.05435 10.8743C7.24366 10.6838 7.33832 10.4557 7.33832 10.1899C7.33832 9.92422 7.24366 9.69611 7.05435 9.5056L4.86481 7.30216H10.1257C10.3847 7.30216 10.5952 7.20816 10.7571 7.02015C10.919 6.83215 11 6.60529 11 6.33957V5.37698C11 5.11126 10.919 4.8844 10.7571 4.6964C10.5952 4.50839 10.3847 4.41439 10.1257 4.41439H4.86481L7.05435 2.20343C7.24366 2.02295 7.33832 1.79734 7.33832 1.52661C7.33832 1.25588 7.24366 1.03028 7.05435 0.849788L6.49389 0.28577C6.30457 0.0952557 6.08039 0 5.82133 0C5.55729 0 5.33062 0.0952557 5.1413 0.28577L0.276494 5.18145C0.092164 5.35693 0 5.58253 0 5.85828Z" fill="#CA673D"/>
</svg>
