<svg width="11" height="12" viewBox="0 0 11 12" fill="none" xmlns="http://www.w3.org/2000/svg">
<path d="M11 5.85828C11 6.12901 10.9078 6.35712 10.7235 6.54262L5.8587 11.4383C5.6644 11.6238 5.43773 11.7166 5.17867 11.7166C4.92459 11.7166 4.70041 11.6238 4.50611 11.4383L3.94565 10.8743C3.75634 10.6838 3.66168 10.4557 3.66168 10.1899C3.66168 9.92422 3.75634 9.69611 3.94565 9.5056L6.13519 7.30216H0.874321C0.615261 7.30216 0.404779 7.20816 0.242867 7.02015C0.0809549 6.83215 0 6.60529 0 6.33957V5.37698C0 5.11126 0.0809549 4.8844 0.242867 4.6964C0.404779 4.50839 0.615261 4.41439 0.874321 4.41439H6.13519L3.94565 2.20343C3.75634 2.02295 3.66168 1.79734 3.66168 1.52661C3.66168 1.25588 3.75634 1.03028 3.94565 0.849788L4.50611 0.28577C4.69543 0.0952557 4.91961 0 5.17867 0C5.44271 0 5.66938 0.0952557 5.8587 0.28577L10.7235 5.18145C10.9078 5.35693 11 5.58253 11 5.85828Z" fill="#CA673D"/>
</svg>
